G75*
%MOIN*%
%OFA0B0*%
%FSLAX25Y25*%
%IPPOS*%
%LPD*%
%AMOC8*
5,1,8,0,0,1.08239X$1,22.5*
%
%ADD10C,0.13598*%
%ADD11C,0.07732*%
%ADD12C,0.06984*%
%ADD13C,0.06984*%
%ADD14R,0.07732X0.07732*%
%ADD15C,0.07732*%
%ADD16C,0.13205*%
D10*
X0021299Y0131402D03*
D11*
X0006500Y0009267D02*
X0006500Y0006237D01*
X0016500Y0006237D02*
X0016500Y0009267D01*
X0026500Y0009267D02*
X0026500Y0006237D01*
X0036500Y0006237D02*
X0036500Y0009267D01*
X0046500Y0009267D02*
X0046500Y0006237D01*
X0056500Y0006237D02*
X0056500Y0009267D01*
X0066500Y0009267D02*
X0066500Y0006237D01*
X0076500Y0006237D02*
X0076500Y0009267D01*
X0086500Y0009267D02*
X0086500Y0006237D01*
X0096500Y0006237D02*
X0096500Y0009267D01*
X0106500Y0009267D02*
X0106500Y0006237D01*
X0116500Y0006237D02*
X0116500Y0009267D01*
X0126500Y0009267D02*
X0126500Y0006237D01*
X0136500Y0006237D02*
X0136500Y0009267D01*
X0146500Y0009267D02*
X0146500Y0006237D01*
X0156500Y0006237D02*
X0156500Y0009267D01*
X0166500Y0009267D02*
X0166500Y0006237D01*
X0176500Y0006237D02*
X0176500Y0009267D01*
X0186500Y0009267D02*
X0186500Y0006237D01*
X0196500Y0006237D02*
X0196500Y0009267D01*
X0206500Y0009267D02*
X0206500Y0006237D01*
X0216500Y0006237D02*
X0216500Y0009267D01*
X0226500Y0009267D02*
X0226500Y0006237D01*
X0236500Y0006237D02*
X0236500Y0009267D01*
X0246500Y0009267D02*
X0246500Y0006237D01*
X0256500Y0006237D02*
X0256500Y0009267D01*
X0266500Y0009267D02*
X0266500Y0006237D01*
X0276500Y0006237D02*
X0276500Y0009267D01*
X0286500Y0009267D02*
X0286500Y0006237D01*
X0296500Y0006237D02*
X0296500Y0009267D01*
X0306500Y0009267D02*
X0306500Y0006237D01*
X0316500Y0006237D02*
X0316500Y0009267D01*
X0326500Y0009267D02*
X0326500Y0006237D01*
X0336500Y0006237D02*
X0336500Y0009267D01*
X0346500Y0009267D02*
X0346500Y0006237D01*
X0356500Y0006237D02*
X0356500Y0009267D01*
X0366500Y0009267D02*
X0366500Y0006237D01*
X0376500Y0006237D02*
X0376500Y0009267D01*
X0386500Y0009267D02*
X0386500Y0006237D01*
D12*
X0265250Y0065904D02*
X0265250Y0068596D01*
X0255250Y0068596D02*
X0255250Y0065904D01*
X0245250Y0065904D02*
X0245250Y0068596D01*
X0235250Y0068596D02*
X0235250Y0065904D01*
X0225250Y0065904D02*
X0225250Y0068596D01*
X0215250Y0068596D02*
X0215250Y0065904D01*
X0205250Y0065904D02*
X0205250Y0068596D01*
X0195250Y0068596D02*
X0195250Y0065904D01*
X0185250Y0065904D02*
X0185250Y0068596D01*
X0175250Y0068596D02*
X0175250Y0065904D01*
X0165250Y0065904D02*
X0165250Y0068596D01*
X0155250Y0068596D02*
X0155250Y0065904D01*
X0145250Y0065904D02*
X0145250Y0068596D01*
X0135250Y0068596D02*
X0135250Y0065904D01*
X0125250Y0065904D02*
X0125250Y0068596D01*
X0115250Y0068596D02*
X0115250Y0065904D01*
X0105250Y0065904D02*
X0105250Y0068596D01*
X0095250Y0068596D02*
X0095250Y0065904D01*
X0085250Y0065904D02*
X0085250Y0068596D01*
X0075250Y0068596D02*
X0075250Y0065904D01*
X0075250Y0125904D02*
X0075250Y0128596D01*
X0085250Y0128596D02*
X0085250Y0125904D01*
X0095250Y0125904D02*
X0095250Y0128596D01*
X0105250Y0128596D02*
X0105250Y0125904D01*
X0115250Y0125904D02*
X0115250Y0128596D01*
X0125250Y0128596D02*
X0125250Y0125904D01*
X0135250Y0125904D02*
X0135250Y0128596D01*
X0145250Y0128596D02*
X0145250Y0125904D01*
X0155250Y0125904D02*
X0155250Y0128596D01*
X0165250Y0128596D02*
X0165250Y0125904D01*
X0175250Y0125904D02*
X0175250Y0128596D01*
X0185250Y0128596D02*
X0185250Y0125904D01*
X0195250Y0125904D02*
X0195250Y0128596D01*
X0205250Y0128596D02*
X0205250Y0125904D01*
X0215250Y0125904D02*
X0215250Y0128596D01*
X0225250Y0128596D02*
X0225250Y0125904D01*
X0235250Y0125904D02*
X0235250Y0128596D01*
X0245250Y0128596D02*
X0245250Y0125904D01*
X0255250Y0125904D02*
X0255250Y0128596D01*
X0265250Y0128596D02*
X0265250Y0125904D01*
X0115250Y0145904D02*
X0115250Y0148596D01*
X0105250Y0148596D02*
X0105250Y0145904D01*
X0095250Y0145904D02*
X0095250Y0148596D01*
X0085250Y0148596D02*
X0085250Y0145904D01*
X0085250Y0175904D02*
X0085250Y0178596D01*
X0095250Y0178596D02*
X0095250Y0175904D01*
X0105250Y0175904D02*
X0105250Y0178596D01*
X0115250Y0178596D02*
X0115250Y0175904D01*
D13*
X0130250Y0172250D03*
X0160750Y0161000D03*
X0179750Y0161000D03*
X0180250Y0142250D03*
X0160250Y0142250D03*
X0130250Y0152250D03*
X0067750Y0142250D03*
X0057750Y0142250D03*
X0044000Y0142250D03*
X0034000Y0142250D03*
X0040250Y0119750D03*
X0032750Y0114750D03*
X0040250Y0109750D03*
X0060250Y0117250D03*
X0044000Y0087250D03*
X0034000Y0087250D03*
X0060250Y0077250D03*
X0060250Y0053500D03*
X0070250Y0053500D03*
X0080250Y0053500D03*
X0090250Y0053500D03*
X0100250Y0053500D03*
X0110250Y0053500D03*
X0120250Y0053500D03*
X0130250Y0053500D03*
X0140250Y0053500D03*
X0160250Y0052250D03*
X0180250Y0052250D03*
X0192750Y0053500D03*
X0230250Y0053500D03*
X0240250Y0053500D03*
X0250250Y0053500D03*
X0260250Y0053500D03*
X0270250Y0053500D03*
X0280250Y0053500D03*
X0290250Y0053500D03*
X0300250Y0053500D03*
X0310250Y0053500D03*
X0320250Y0053500D03*
X0330250Y0053500D03*
X0330250Y0023500D03*
X0320250Y0023500D03*
X0310250Y0023500D03*
X0300250Y0023500D03*
X0290250Y0023500D03*
X0280250Y0023500D03*
X0270250Y0023500D03*
X0260250Y0023500D03*
X0250250Y0023500D03*
X0240250Y0023500D03*
X0230250Y0023500D03*
X0192750Y0023500D03*
X0140250Y0023500D03*
X0130250Y0023500D03*
X0120250Y0023500D03*
X0110250Y0023500D03*
X0100250Y0023500D03*
X0090250Y0023500D03*
X0080250Y0023500D03*
X0070250Y0023500D03*
X0060250Y0023500D03*
X0050250Y0023500D03*
X0040250Y0023500D03*
X0029000Y0037250D03*
X0019000Y0037250D03*
X0024000Y0044750D03*
X0040250Y0053500D03*
X0050250Y0053500D03*
X0210250Y0142250D03*
X0220250Y0142250D03*
X0280250Y0144750D03*
X0280250Y0134750D03*
X0280250Y0124750D03*
X0280250Y0114750D03*
X0280250Y0104750D03*
X0280250Y0094750D03*
X0280250Y0084750D03*
X0320250Y0084750D03*
X0320250Y0094750D03*
X0320250Y0104750D03*
X0320250Y0114750D03*
X0320250Y0124750D03*
X0320250Y0134750D03*
X0320250Y0144750D03*
X0320250Y0154750D03*
X0320250Y0164750D03*
X0320250Y0174750D03*
X0320250Y0184750D03*
X0280250Y0184750D03*
X0280250Y0174750D03*
X0280250Y0164750D03*
X0280250Y0154750D03*
X0220250Y0182250D03*
X0210250Y0182250D03*
X0067750Y0182250D03*
X0057750Y0182250D03*
D14*
X0190250Y0184750D03*
X0346500Y0124293D03*
D15*
X0356500Y0119793D03*
X0346500Y0115293D03*
X0356500Y0110793D03*
X0346500Y0106293D03*
X0356500Y0101793D03*
X0346500Y0097293D03*
X0356500Y0092793D03*
X0346500Y0088293D03*
X0366500Y0088293D03*
X0366500Y0097293D03*
X0366500Y0106293D03*
X0366500Y0115293D03*
X0366500Y0124293D03*
X0356500Y0128793D03*
X0356500Y0179750D03*
X0366500Y0179750D03*
X0366500Y0189750D03*
X0356500Y0189750D03*
X0180250Y0184750D03*
X0170250Y0184750D03*
X0160250Y0184750D03*
X0150250Y0184750D03*
X0356500Y0029750D03*
X0366500Y0029750D03*
X0376500Y0029750D03*
X0211500Y0023500D03*
D16*
X0356500Y0058037D03*
X0356500Y0156463D03*
M02*
