%
M48
M72
T01C0.0197
T02C0.0315
T03C0.0354
T04C0.1220
T05C0.1260
%
T01
X17775Y3725
X18275Y4100
X22025Y4850
X23525Y3350
X22525Y2975
X25525Y3725
X26525Y4100
X20025Y10600
X20025Y13850
T02
X21025Y14225
X22025Y14225
X21525Y12725
X20525Y12725
X19525Y12725
X18525Y12725
X17525Y12725
X16525Y12725
X15525Y12725
X14525Y12725
X13525Y12725
X12525Y12725
X11525Y12725
X10525Y12725
X9525Y12725
X8525Y12725
X7525Y12725
X6025Y11725
X4025Y11975
X3275Y11475
X4025Y10975
X4400Y8725
X3400Y8725
X6025Y7725
X7525Y6725
X8525Y6725
X9525Y6725
X10525Y6725
X11525Y6725
X12525Y6725
X13525Y6725
X14525Y6725
X15525Y6725
X16525Y6725
X17525Y6725
X18525Y6725
X19525Y6725
X20525Y6725
X21525Y6725
X22525Y6725
X23525Y6725
X24525Y6725
X25525Y6725
X26525Y6725
X26025Y5350
X27025Y5350
X28025Y5350
X29025Y5350
X30025Y5350
X31025Y5350
X32025Y5350
X33025Y5350
X33025Y2350
X32025Y2350
X31025Y2350
X30025Y2350
X29025Y2350
X28025Y2350
X27025Y2350
X26025Y2350
X25025Y2350
X24025Y2350
X23025Y2350
X19275Y2350
X14025Y2350
X13025Y2350
X12025Y2350
X11025Y2350
X10025Y2350
X9025Y2350
X8025Y2350
X7025Y2350
X6025Y2350
X5025Y2350
X4025Y2350
X2900Y3725
X1900Y3725
X2400Y4475
X4025Y5350
X5025Y5350
X6025Y5350
X7025Y5350
X8025Y5350
X9025Y5350
X10025Y5350
X11025Y5350
X12025Y5350
X13025Y5350
X14025Y5350
X16025Y5225
X18025Y5225
X19275Y5350
X23025Y5350
X24025Y5350
X25025Y5350
X28025Y8475
X28025Y9475
X28025Y10475
X28025Y11475
X28025Y12475
X26525Y12725
X25525Y12725
X24525Y12725
X23525Y12725
X22525Y12725
X18025Y14225
X16025Y14225
X13025Y15225
X11525Y14725
X10525Y14725
X9525Y14725
X8525Y14725
X6775Y14225
X5775Y14225
X4400Y14225
X3400Y14225
X8525Y17725
X9525Y17725
X10525Y17725
X11525Y17725
X13025Y17225
X16075Y16100
X17975Y16100
X21025Y18225
X22025Y18225
X28025Y18475
X28025Y17475
X28025Y16475
X28025Y15475
X28025Y14475
X28025Y13475
X32025Y13475
X32025Y12475
X32025Y11475
X32025Y10475
X32025Y9475
X32025Y8475
X32025Y14475
X32025Y15475
X32025Y16475
X32025Y17475
X32025Y18475
X6775Y18225
X5775Y18225
T03
X650Y775
X1650Y775
X2650Y775
X3650Y775
X4650Y775
X5650Y775
X6650Y775
X7650Y775
X8650Y775
X9650Y775
X10650Y775
X11650Y775
X12650Y775
X13650Y775
X14650Y775
X15650Y775
X16650Y775
X17650Y775
X18650Y775
X19650Y775
X20650Y775
X21650Y775
X22650Y775
X23650Y775
X24650Y775
X25650Y775
X26650Y775
X27650Y775
X28650Y775
X29650Y775
X30650Y775
X31650Y775
X32650Y775
X33650Y775
X34650Y775
X35650Y775
X36650Y775
X37650Y775
X38650Y775
X37650Y2975
X36650Y2975
X35650Y2975
X34650Y8829
X35650Y9279
X34650Y9729
X35650Y10179
X34650Y10629
X35650Y11079
X36650Y10629
X36650Y9729
X36650Y8829
X36650Y11529
X35650Y11979
X34650Y11529
X34650Y12429
X35650Y12879
X36650Y12429
X36650Y17975
X35650Y17975
X35650Y18975
X36650Y18975
X19025Y18475
X18025Y18475
X17025Y18475
X16025Y18475
X15025Y18475
X21150Y2350
T04
X35650Y5804
X35650Y15646
T05
X2130Y13140
M30
