G75*
%MOIN*%
%OFA0B0*%
%FSLAX25Y25*%
%IPPOS*%
%LPD*%
%AMOC8*
5,1,8,0,0,1.08239X$1,22.5*
%
%ADD10C,0.00000*%
D10*
X0001500Y0001000D02*
X0001500Y0138201D01*
X0060598Y0197299D01*
X0371602Y0197299D01*
X0372087Y0197293D01*
X0372572Y0197276D01*
X0373056Y0197246D01*
X0373540Y0197205D01*
X0374022Y0197153D01*
X0374503Y0197088D01*
X0374982Y0197012D01*
X0375460Y0196925D01*
X0375935Y0196826D01*
X0376407Y0196716D01*
X0376877Y0196594D01*
X0377344Y0196461D01*
X0377807Y0196316D01*
X0378266Y0196161D01*
X0378722Y0195994D01*
X0379174Y0195817D01*
X0379621Y0195628D01*
X0380063Y0195429D01*
X0380501Y0195219D01*
X0380933Y0194999D01*
X0381360Y0194768D01*
X0381781Y0194527D01*
X0382196Y0194276D01*
X0382606Y0194015D01*
X0383008Y0193745D01*
X0383404Y0193464D01*
X0383793Y0193174D01*
X0384175Y0192875D01*
X0384550Y0192567D01*
X0384917Y0192249D01*
X0385276Y0191923D01*
X0385627Y0191589D01*
X0385971Y0191245D01*
X0386305Y0190894D01*
X0386631Y0190535D01*
X0386949Y0190168D01*
X0387257Y0189793D01*
X0387556Y0189411D01*
X0387846Y0189022D01*
X0388127Y0188626D01*
X0388397Y0188224D01*
X0388658Y0187814D01*
X0388909Y0187399D01*
X0389150Y0186978D01*
X0389381Y0186551D01*
X0389601Y0186119D01*
X0389811Y0185681D01*
X0390010Y0185239D01*
X0390199Y0184792D01*
X0390376Y0184340D01*
X0390543Y0183884D01*
X0390698Y0183425D01*
X0390843Y0182962D01*
X0390976Y0182495D01*
X0391098Y0182025D01*
X0391208Y0181553D01*
X0391307Y0181078D01*
X0391394Y0180600D01*
X0391470Y0180121D01*
X0391535Y0179640D01*
X0391587Y0179158D01*
X0391628Y0178674D01*
X0391658Y0178190D01*
X0391675Y0177705D01*
X0391681Y0177220D01*
X0391681Y0001000D01*
X0001500Y0001000D01*
X0015000Y0131402D02*
X0015002Y0131560D01*
X0015008Y0131718D01*
X0015018Y0131876D01*
X0015032Y0132034D01*
X0015050Y0132191D01*
X0015071Y0132348D01*
X0015097Y0132504D01*
X0015127Y0132660D01*
X0015160Y0132815D01*
X0015198Y0132968D01*
X0015239Y0133121D01*
X0015284Y0133273D01*
X0015333Y0133424D01*
X0015386Y0133573D01*
X0015442Y0133721D01*
X0015502Y0133867D01*
X0015566Y0134012D01*
X0015634Y0134155D01*
X0015705Y0134297D01*
X0015779Y0134437D01*
X0015857Y0134574D01*
X0015939Y0134710D01*
X0016023Y0134844D01*
X0016112Y0134975D01*
X0016203Y0135104D01*
X0016298Y0135231D01*
X0016395Y0135356D01*
X0016496Y0135478D01*
X0016600Y0135597D01*
X0016707Y0135714D01*
X0016817Y0135828D01*
X0016930Y0135939D01*
X0017045Y0136048D01*
X0017163Y0136153D01*
X0017284Y0136255D01*
X0017407Y0136355D01*
X0017533Y0136451D01*
X0017661Y0136544D01*
X0017791Y0136634D01*
X0017924Y0136720D01*
X0018059Y0136804D01*
X0018195Y0136883D01*
X0018334Y0136960D01*
X0018475Y0137032D01*
X0018617Y0137102D01*
X0018761Y0137167D01*
X0018907Y0137229D01*
X0019054Y0137287D01*
X0019203Y0137342D01*
X0019353Y0137393D01*
X0019504Y0137440D01*
X0019656Y0137483D01*
X0019809Y0137522D01*
X0019964Y0137558D01*
X0020119Y0137589D01*
X0020275Y0137617D01*
X0020431Y0137641D01*
X0020588Y0137661D01*
X0020746Y0137677D01*
X0020903Y0137689D01*
X0021062Y0137697D01*
X0021220Y0137701D01*
X0021378Y0137701D01*
X0021536Y0137697D01*
X0021695Y0137689D01*
X0021852Y0137677D01*
X0022010Y0137661D01*
X0022167Y0137641D01*
X0022323Y0137617D01*
X0022479Y0137589D01*
X0022634Y0137558D01*
X0022789Y0137522D01*
X0022942Y0137483D01*
X0023094Y0137440D01*
X0023245Y0137393D01*
X0023395Y0137342D01*
X0023544Y0137287D01*
X0023691Y0137229D01*
X0023837Y0137167D01*
X0023981Y0137102D01*
X0024123Y0137032D01*
X0024264Y0136960D01*
X0024403Y0136883D01*
X0024539Y0136804D01*
X0024674Y0136720D01*
X0024807Y0136634D01*
X0024937Y0136544D01*
X0025065Y0136451D01*
X0025191Y0136355D01*
X0025314Y0136255D01*
X0025435Y0136153D01*
X0025553Y0136048D01*
X0025668Y0135939D01*
X0025781Y0135828D01*
X0025891Y0135714D01*
X0025998Y0135597D01*
X0026102Y0135478D01*
X0026203Y0135356D01*
X0026300Y0135231D01*
X0026395Y0135104D01*
X0026486Y0134975D01*
X0026575Y0134844D01*
X0026659Y0134710D01*
X0026741Y0134574D01*
X0026819Y0134437D01*
X0026893Y0134297D01*
X0026964Y0134155D01*
X0027032Y0134012D01*
X0027096Y0133867D01*
X0027156Y0133721D01*
X0027212Y0133573D01*
X0027265Y0133424D01*
X0027314Y0133273D01*
X0027359Y0133121D01*
X0027400Y0132968D01*
X0027438Y0132815D01*
X0027471Y0132660D01*
X0027501Y0132504D01*
X0027527Y0132348D01*
X0027548Y0132191D01*
X0027566Y0132034D01*
X0027580Y0131876D01*
X0027590Y0131718D01*
X0027596Y0131560D01*
X0027598Y0131402D01*
X0027596Y0131244D01*
X0027590Y0131086D01*
X0027580Y0130928D01*
X0027566Y0130770D01*
X0027548Y0130613D01*
X0027527Y0130456D01*
X0027501Y0130300D01*
X0027471Y0130144D01*
X0027438Y0129989D01*
X0027400Y0129836D01*
X0027359Y0129683D01*
X0027314Y0129531D01*
X0027265Y0129380D01*
X0027212Y0129231D01*
X0027156Y0129083D01*
X0027096Y0128937D01*
X0027032Y0128792D01*
X0026964Y0128649D01*
X0026893Y0128507D01*
X0026819Y0128367D01*
X0026741Y0128230D01*
X0026659Y0128094D01*
X0026575Y0127960D01*
X0026486Y0127829D01*
X0026395Y0127700D01*
X0026300Y0127573D01*
X0026203Y0127448D01*
X0026102Y0127326D01*
X0025998Y0127207D01*
X0025891Y0127090D01*
X0025781Y0126976D01*
X0025668Y0126865D01*
X0025553Y0126756D01*
X0025435Y0126651D01*
X0025314Y0126549D01*
X0025191Y0126449D01*
X0025065Y0126353D01*
X0024937Y0126260D01*
X0024807Y0126170D01*
X0024674Y0126084D01*
X0024539Y0126000D01*
X0024403Y0125921D01*
X0024264Y0125844D01*
X0024123Y0125772D01*
X0023981Y0125702D01*
X0023837Y0125637D01*
X0023691Y0125575D01*
X0023544Y0125517D01*
X0023395Y0125462D01*
X0023245Y0125411D01*
X0023094Y0125364D01*
X0022942Y0125321D01*
X0022789Y0125282D01*
X0022634Y0125246D01*
X0022479Y0125215D01*
X0022323Y0125187D01*
X0022167Y0125163D01*
X0022010Y0125143D01*
X0021852Y0125127D01*
X0021695Y0125115D01*
X0021536Y0125107D01*
X0021378Y0125103D01*
X0021220Y0125103D01*
X0021062Y0125107D01*
X0020903Y0125115D01*
X0020746Y0125127D01*
X0020588Y0125143D01*
X0020431Y0125163D01*
X0020275Y0125187D01*
X0020119Y0125215D01*
X0019964Y0125246D01*
X0019809Y0125282D01*
X0019656Y0125321D01*
X0019504Y0125364D01*
X0019353Y0125411D01*
X0019203Y0125462D01*
X0019054Y0125517D01*
X0018907Y0125575D01*
X0018761Y0125637D01*
X0018617Y0125702D01*
X0018475Y0125772D01*
X0018334Y0125844D01*
X0018195Y0125921D01*
X0018059Y0126000D01*
X0017924Y0126084D01*
X0017791Y0126170D01*
X0017661Y0126260D01*
X0017533Y0126353D01*
X0017407Y0126449D01*
X0017284Y0126549D01*
X0017163Y0126651D01*
X0017045Y0126756D01*
X0016930Y0126865D01*
X0016817Y0126976D01*
X0016707Y0127090D01*
X0016600Y0127207D01*
X0016496Y0127326D01*
X0016395Y0127448D01*
X0016298Y0127573D01*
X0016203Y0127700D01*
X0016112Y0127829D01*
X0016023Y0127960D01*
X0015939Y0128094D01*
X0015857Y0128230D01*
X0015779Y0128367D01*
X0015705Y0128507D01*
X0015634Y0128649D01*
X0015566Y0128792D01*
X0015502Y0128937D01*
X0015442Y0129083D01*
X0015386Y0129231D01*
X0015333Y0129380D01*
X0015284Y0129531D01*
X0015239Y0129683D01*
X0015198Y0129836D01*
X0015160Y0129989D01*
X0015127Y0130144D01*
X0015097Y0130300D01*
X0015071Y0130456D01*
X0015050Y0130613D01*
X0015032Y0130770D01*
X0015018Y0130928D01*
X0015008Y0131086D01*
X0015002Y0131244D01*
X0015000Y0131402D01*
X0350398Y0156463D02*
X0350400Y0156619D01*
X0350406Y0156775D01*
X0350416Y0156930D01*
X0350430Y0157085D01*
X0350448Y0157240D01*
X0350470Y0157394D01*
X0350495Y0157548D01*
X0350525Y0157701D01*
X0350559Y0157853D01*
X0350596Y0158005D01*
X0350637Y0158155D01*
X0350682Y0158304D01*
X0350731Y0158452D01*
X0350784Y0158599D01*
X0350840Y0158744D01*
X0350900Y0158888D01*
X0350964Y0159030D01*
X0351032Y0159171D01*
X0351103Y0159309D01*
X0351177Y0159446D01*
X0351255Y0159581D01*
X0351336Y0159714D01*
X0351421Y0159845D01*
X0351509Y0159974D01*
X0351600Y0160100D01*
X0351695Y0160224D01*
X0351792Y0160345D01*
X0351893Y0160464D01*
X0351997Y0160581D01*
X0352103Y0160694D01*
X0352213Y0160805D01*
X0352325Y0160913D01*
X0352440Y0161018D01*
X0352558Y0161121D01*
X0352678Y0161220D01*
X0352801Y0161316D01*
X0352926Y0161409D01*
X0353053Y0161498D01*
X0353183Y0161585D01*
X0353315Y0161668D01*
X0353449Y0161747D01*
X0353585Y0161824D01*
X0353723Y0161896D01*
X0353862Y0161966D01*
X0354004Y0162031D01*
X0354147Y0162093D01*
X0354291Y0162151D01*
X0354437Y0162206D01*
X0354585Y0162257D01*
X0354733Y0162304D01*
X0354883Y0162347D01*
X0355034Y0162386D01*
X0355186Y0162422D01*
X0355338Y0162453D01*
X0355492Y0162481D01*
X0355646Y0162505D01*
X0355800Y0162525D01*
X0355955Y0162541D01*
X0356111Y0162553D01*
X0356266Y0162561D01*
X0356422Y0162565D01*
X0356578Y0162565D01*
X0356734Y0162561D01*
X0356889Y0162553D01*
X0357045Y0162541D01*
X0357200Y0162525D01*
X0357354Y0162505D01*
X0357508Y0162481D01*
X0357662Y0162453D01*
X0357814Y0162422D01*
X0357966Y0162386D01*
X0358117Y0162347D01*
X0358267Y0162304D01*
X0358415Y0162257D01*
X0358563Y0162206D01*
X0358709Y0162151D01*
X0358853Y0162093D01*
X0358996Y0162031D01*
X0359138Y0161966D01*
X0359277Y0161896D01*
X0359415Y0161824D01*
X0359551Y0161747D01*
X0359685Y0161668D01*
X0359817Y0161585D01*
X0359947Y0161498D01*
X0360074Y0161409D01*
X0360199Y0161316D01*
X0360322Y0161220D01*
X0360442Y0161121D01*
X0360560Y0161018D01*
X0360675Y0160913D01*
X0360787Y0160805D01*
X0360897Y0160694D01*
X0361003Y0160581D01*
X0361107Y0160464D01*
X0361208Y0160345D01*
X0361305Y0160224D01*
X0361400Y0160100D01*
X0361491Y0159974D01*
X0361579Y0159845D01*
X0361664Y0159714D01*
X0361745Y0159581D01*
X0361823Y0159446D01*
X0361897Y0159309D01*
X0361968Y0159171D01*
X0362036Y0159030D01*
X0362100Y0158888D01*
X0362160Y0158744D01*
X0362216Y0158599D01*
X0362269Y0158452D01*
X0362318Y0158304D01*
X0362363Y0158155D01*
X0362404Y0158005D01*
X0362441Y0157853D01*
X0362475Y0157701D01*
X0362505Y0157548D01*
X0362530Y0157394D01*
X0362552Y0157240D01*
X0362570Y0157085D01*
X0362584Y0156930D01*
X0362594Y0156775D01*
X0362600Y0156619D01*
X0362602Y0156463D01*
X0362600Y0156307D01*
X0362594Y0156151D01*
X0362584Y0155996D01*
X0362570Y0155841D01*
X0362552Y0155686D01*
X0362530Y0155532D01*
X0362505Y0155378D01*
X0362475Y0155225D01*
X0362441Y0155073D01*
X0362404Y0154921D01*
X0362363Y0154771D01*
X0362318Y0154622D01*
X0362269Y0154474D01*
X0362216Y0154327D01*
X0362160Y0154182D01*
X0362100Y0154038D01*
X0362036Y0153896D01*
X0361968Y0153755D01*
X0361897Y0153617D01*
X0361823Y0153480D01*
X0361745Y0153345D01*
X0361664Y0153212D01*
X0361579Y0153081D01*
X0361491Y0152952D01*
X0361400Y0152826D01*
X0361305Y0152702D01*
X0361208Y0152581D01*
X0361107Y0152462D01*
X0361003Y0152345D01*
X0360897Y0152232D01*
X0360787Y0152121D01*
X0360675Y0152013D01*
X0360560Y0151908D01*
X0360442Y0151805D01*
X0360322Y0151706D01*
X0360199Y0151610D01*
X0360074Y0151517D01*
X0359947Y0151428D01*
X0359817Y0151341D01*
X0359685Y0151258D01*
X0359551Y0151179D01*
X0359415Y0151102D01*
X0359277Y0151030D01*
X0359138Y0150960D01*
X0358996Y0150895D01*
X0358853Y0150833D01*
X0358709Y0150775D01*
X0358563Y0150720D01*
X0358415Y0150669D01*
X0358267Y0150622D01*
X0358117Y0150579D01*
X0357966Y0150540D01*
X0357814Y0150504D01*
X0357662Y0150473D01*
X0357508Y0150445D01*
X0357354Y0150421D01*
X0357200Y0150401D01*
X0357045Y0150385D01*
X0356889Y0150373D01*
X0356734Y0150365D01*
X0356578Y0150361D01*
X0356422Y0150361D01*
X0356266Y0150365D01*
X0356111Y0150373D01*
X0355955Y0150385D01*
X0355800Y0150401D01*
X0355646Y0150421D01*
X0355492Y0150445D01*
X0355338Y0150473D01*
X0355186Y0150504D01*
X0355034Y0150540D01*
X0354883Y0150579D01*
X0354733Y0150622D01*
X0354585Y0150669D01*
X0354437Y0150720D01*
X0354291Y0150775D01*
X0354147Y0150833D01*
X0354004Y0150895D01*
X0353862Y0150960D01*
X0353723Y0151030D01*
X0353585Y0151102D01*
X0353449Y0151179D01*
X0353315Y0151258D01*
X0353183Y0151341D01*
X0353053Y0151428D01*
X0352926Y0151517D01*
X0352801Y0151610D01*
X0352678Y0151706D01*
X0352558Y0151805D01*
X0352440Y0151908D01*
X0352325Y0152013D01*
X0352213Y0152121D01*
X0352103Y0152232D01*
X0351997Y0152345D01*
X0351893Y0152462D01*
X0351792Y0152581D01*
X0351695Y0152702D01*
X0351600Y0152826D01*
X0351509Y0152952D01*
X0351421Y0153081D01*
X0351336Y0153212D01*
X0351255Y0153345D01*
X0351177Y0153480D01*
X0351103Y0153617D01*
X0351032Y0153755D01*
X0350964Y0153896D01*
X0350900Y0154038D01*
X0350840Y0154182D01*
X0350784Y0154327D01*
X0350731Y0154474D01*
X0350682Y0154622D01*
X0350637Y0154771D01*
X0350596Y0154921D01*
X0350559Y0155073D01*
X0350525Y0155225D01*
X0350495Y0155378D01*
X0350470Y0155532D01*
X0350448Y0155686D01*
X0350430Y0155841D01*
X0350416Y0155996D01*
X0350406Y0156151D01*
X0350400Y0156307D01*
X0350398Y0156463D01*
X0350398Y0058037D02*
X0350400Y0058193D01*
X0350406Y0058349D01*
X0350416Y0058504D01*
X0350430Y0058659D01*
X0350448Y0058814D01*
X0350470Y0058968D01*
X0350495Y0059122D01*
X0350525Y0059275D01*
X0350559Y0059427D01*
X0350596Y0059579D01*
X0350637Y0059729D01*
X0350682Y0059878D01*
X0350731Y0060026D01*
X0350784Y0060173D01*
X0350840Y0060318D01*
X0350900Y0060462D01*
X0350964Y0060604D01*
X0351032Y0060745D01*
X0351103Y0060883D01*
X0351177Y0061020D01*
X0351255Y0061155D01*
X0351336Y0061288D01*
X0351421Y0061419D01*
X0351509Y0061548D01*
X0351600Y0061674D01*
X0351695Y0061798D01*
X0351792Y0061919D01*
X0351893Y0062038D01*
X0351997Y0062155D01*
X0352103Y0062268D01*
X0352213Y0062379D01*
X0352325Y0062487D01*
X0352440Y0062592D01*
X0352558Y0062695D01*
X0352678Y0062794D01*
X0352801Y0062890D01*
X0352926Y0062983D01*
X0353053Y0063072D01*
X0353183Y0063159D01*
X0353315Y0063242D01*
X0353449Y0063321D01*
X0353585Y0063398D01*
X0353723Y0063470D01*
X0353862Y0063540D01*
X0354004Y0063605D01*
X0354147Y0063667D01*
X0354291Y0063725D01*
X0354437Y0063780D01*
X0354585Y0063831D01*
X0354733Y0063878D01*
X0354883Y0063921D01*
X0355034Y0063960D01*
X0355186Y0063996D01*
X0355338Y0064027D01*
X0355492Y0064055D01*
X0355646Y0064079D01*
X0355800Y0064099D01*
X0355955Y0064115D01*
X0356111Y0064127D01*
X0356266Y0064135D01*
X0356422Y0064139D01*
X0356578Y0064139D01*
X0356734Y0064135D01*
X0356889Y0064127D01*
X0357045Y0064115D01*
X0357200Y0064099D01*
X0357354Y0064079D01*
X0357508Y0064055D01*
X0357662Y0064027D01*
X0357814Y0063996D01*
X0357966Y0063960D01*
X0358117Y0063921D01*
X0358267Y0063878D01*
X0358415Y0063831D01*
X0358563Y0063780D01*
X0358709Y0063725D01*
X0358853Y0063667D01*
X0358996Y0063605D01*
X0359138Y0063540D01*
X0359277Y0063470D01*
X0359415Y0063398D01*
X0359551Y0063321D01*
X0359685Y0063242D01*
X0359817Y0063159D01*
X0359947Y0063072D01*
X0360074Y0062983D01*
X0360199Y0062890D01*
X0360322Y0062794D01*
X0360442Y0062695D01*
X0360560Y0062592D01*
X0360675Y0062487D01*
X0360787Y0062379D01*
X0360897Y0062268D01*
X0361003Y0062155D01*
X0361107Y0062038D01*
X0361208Y0061919D01*
X0361305Y0061798D01*
X0361400Y0061674D01*
X0361491Y0061548D01*
X0361579Y0061419D01*
X0361664Y0061288D01*
X0361745Y0061155D01*
X0361823Y0061020D01*
X0361897Y0060883D01*
X0361968Y0060745D01*
X0362036Y0060604D01*
X0362100Y0060462D01*
X0362160Y0060318D01*
X0362216Y0060173D01*
X0362269Y0060026D01*
X0362318Y0059878D01*
X0362363Y0059729D01*
X0362404Y0059579D01*
X0362441Y0059427D01*
X0362475Y0059275D01*
X0362505Y0059122D01*
X0362530Y0058968D01*
X0362552Y0058814D01*
X0362570Y0058659D01*
X0362584Y0058504D01*
X0362594Y0058349D01*
X0362600Y0058193D01*
X0362602Y0058037D01*
X0362600Y0057881D01*
X0362594Y0057725D01*
X0362584Y0057570D01*
X0362570Y0057415D01*
X0362552Y0057260D01*
X0362530Y0057106D01*
X0362505Y0056952D01*
X0362475Y0056799D01*
X0362441Y0056647D01*
X0362404Y0056495D01*
X0362363Y0056345D01*
X0362318Y0056196D01*
X0362269Y0056048D01*
X0362216Y0055901D01*
X0362160Y0055756D01*
X0362100Y0055612D01*
X0362036Y0055470D01*
X0361968Y0055329D01*
X0361897Y0055191D01*
X0361823Y0055054D01*
X0361745Y0054919D01*
X0361664Y0054786D01*
X0361579Y0054655D01*
X0361491Y0054526D01*
X0361400Y0054400D01*
X0361305Y0054276D01*
X0361208Y0054155D01*
X0361107Y0054036D01*
X0361003Y0053919D01*
X0360897Y0053806D01*
X0360787Y0053695D01*
X0360675Y0053587D01*
X0360560Y0053482D01*
X0360442Y0053379D01*
X0360322Y0053280D01*
X0360199Y0053184D01*
X0360074Y0053091D01*
X0359947Y0053002D01*
X0359817Y0052915D01*
X0359685Y0052832D01*
X0359551Y0052753D01*
X0359415Y0052676D01*
X0359277Y0052604D01*
X0359138Y0052534D01*
X0358996Y0052469D01*
X0358853Y0052407D01*
X0358709Y0052349D01*
X0358563Y0052294D01*
X0358415Y0052243D01*
X0358267Y0052196D01*
X0358117Y0052153D01*
X0357966Y0052114D01*
X0357814Y0052078D01*
X0357662Y0052047D01*
X0357508Y0052019D01*
X0357354Y0051995D01*
X0357200Y0051975D01*
X0357045Y0051959D01*
X0356889Y0051947D01*
X0356734Y0051939D01*
X0356578Y0051935D01*
X0356422Y0051935D01*
X0356266Y0051939D01*
X0356111Y0051947D01*
X0355955Y0051959D01*
X0355800Y0051975D01*
X0355646Y0051995D01*
X0355492Y0052019D01*
X0355338Y0052047D01*
X0355186Y0052078D01*
X0355034Y0052114D01*
X0354883Y0052153D01*
X0354733Y0052196D01*
X0354585Y0052243D01*
X0354437Y0052294D01*
X0354291Y0052349D01*
X0354147Y0052407D01*
X0354004Y0052469D01*
X0353862Y0052534D01*
X0353723Y0052604D01*
X0353585Y0052676D01*
X0353449Y0052753D01*
X0353315Y0052832D01*
X0353183Y0052915D01*
X0353053Y0053002D01*
X0352926Y0053091D01*
X0352801Y0053184D01*
X0352678Y0053280D01*
X0352558Y0053379D01*
X0352440Y0053482D01*
X0352325Y0053587D01*
X0352213Y0053695D01*
X0352103Y0053806D01*
X0351997Y0053919D01*
X0351893Y0054036D01*
X0351792Y0054155D01*
X0351695Y0054276D01*
X0351600Y0054400D01*
X0351509Y0054526D01*
X0351421Y0054655D01*
X0351336Y0054786D01*
X0351255Y0054919D01*
X0351177Y0055054D01*
X0351103Y0055191D01*
X0351032Y0055329D01*
X0350964Y0055470D01*
X0350900Y0055612D01*
X0350840Y0055756D01*
X0350784Y0055901D01*
X0350731Y0056048D01*
X0350682Y0056196D01*
X0350637Y0056345D01*
X0350596Y0056495D01*
X0350559Y0056647D01*
X0350525Y0056799D01*
X0350495Y0056952D01*
X0350470Y0057106D01*
X0350448Y0057260D01*
X0350430Y0057415D01*
X0350416Y0057570D01*
X0350406Y0057725D01*
X0350400Y0057881D01*
X0350398Y0058037D01*
M02*
