G75*
%MOIN*%
%OFA0B0*%
%FSLAX25Y25*%
%IPPOS*%
%LPD*%
%AMOC8*
5,1,8,0,0,1.08239X$1,22.5*
%
%ADD10C,0.13598*%
%ADD11C,0.06315*%
%ADD12C,0.05724*%
%ADD13C,0.13205*%
D10*
X0021299Y0131402D03*
D11*
X0006500Y0007752D03*
X0016500Y0007752D03*
X0026500Y0007752D03*
X0036500Y0007752D03*
X0046500Y0007752D03*
X0056500Y0007752D03*
X0066500Y0007752D03*
X0076500Y0007752D03*
X0086500Y0007752D03*
X0096500Y0007752D03*
X0106500Y0007752D03*
X0116500Y0007752D03*
X0126500Y0007752D03*
X0136500Y0007752D03*
X0146500Y0007752D03*
X0156500Y0007752D03*
X0166500Y0007752D03*
X0176500Y0007752D03*
X0186500Y0007752D03*
X0196500Y0007752D03*
X0206500Y0007752D03*
X0216500Y0007752D03*
X0226500Y0007752D03*
X0236500Y0007752D03*
X0246500Y0007752D03*
X0256500Y0007752D03*
X0266500Y0007752D03*
X0276500Y0007752D03*
X0286500Y0007752D03*
X0296500Y0007752D03*
X0306500Y0007752D03*
X0316500Y0007752D03*
X0326500Y0007752D03*
X0336500Y0007752D03*
X0346500Y0007752D03*
X0356500Y0007752D03*
X0366500Y0007752D03*
X0376500Y0007752D03*
X0386500Y0007752D03*
X0376500Y0029750D03*
X0366500Y0029750D03*
X0356500Y0029750D03*
X0346500Y0088293D03*
X0356500Y0092793D03*
X0346500Y0097293D03*
X0356500Y0101793D03*
X0346500Y0106293D03*
X0356500Y0110793D03*
X0366500Y0106293D03*
X0366500Y0097293D03*
X0366500Y0088293D03*
X0366500Y0115293D03*
X0356500Y0119793D03*
X0346500Y0115293D03*
X0346500Y0124293D03*
X0356500Y0128793D03*
X0366500Y0124293D03*
X0366500Y0179750D03*
X0356500Y0179750D03*
X0356500Y0189750D03*
X0366500Y0189750D03*
X0190250Y0184750D03*
X0180250Y0184750D03*
X0170250Y0184750D03*
X0160250Y0184750D03*
X0150250Y0184750D03*
X0211500Y0023500D03*
D12*
X0192750Y0023500D03*
X0230250Y0023500D03*
X0240250Y0023500D03*
X0250250Y0023500D03*
X0260250Y0023500D03*
X0270250Y0023500D03*
X0280250Y0023500D03*
X0290250Y0023500D03*
X0300250Y0023500D03*
X0310250Y0023500D03*
X0320250Y0023500D03*
X0330250Y0023500D03*
X0330250Y0053500D03*
X0320250Y0053500D03*
X0310250Y0053500D03*
X0300250Y0053500D03*
X0290250Y0053500D03*
X0280250Y0053500D03*
X0270250Y0053500D03*
X0260250Y0053500D03*
X0250250Y0053500D03*
X0240250Y0053500D03*
X0230250Y0053500D03*
X0225250Y0067250D03*
X0235250Y0067250D03*
X0245250Y0067250D03*
X0255250Y0067250D03*
X0265250Y0067250D03*
X0280250Y0084750D03*
X0280250Y0094750D03*
X0280250Y0104750D03*
X0280250Y0114750D03*
X0280250Y0124750D03*
X0265250Y0127250D03*
X0255250Y0127250D03*
X0245250Y0127250D03*
X0235250Y0127250D03*
X0225250Y0127250D03*
X0215250Y0127250D03*
X0205250Y0127250D03*
X0195250Y0127250D03*
X0185250Y0127250D03*
X0175250Y0127250D03*
X0165250Y0127250D03*
X0155250Y0127250D03*
X0145250Y0127250D03*
X0135250Y0127250D03*
X0125250Y0127250D03*
X0115250Y0127250D03*
X0105250Y0127250D03*
X0095250Y0127250D03*
X0085250Y0127250D03*
X0075250Y0127250D03*
X0060250Y0117250D03*
X0040250Y0119750D03*
X0032750Y0114750D03*
X0040250Y0109750D03*
X0044000Y0087250D03*
X0034000Y0087250D03*
X0060250Y0077250D03*
X0075250Y0067250D03*
X0085250Y0067250D03*
X0095250Y0067250D03*
X0105250Y0067250D03*
X0115250Y0067250D03*
X0125250Y0067250D03*
X0135250Y0067250D03*
X0145250Y0067250D03*
X0155250Y0067250D03*
X0165250Y0067250D03*
X0175250Y0067250D03*
X0185250Y0067250D03*
X0195250Y0067250D03*
X0205250Y0067250D03*
X0215250Y0067250D03*
X0192750Y0053500D03*
X0180250Y0052250D03*
X0160250Y0052250D03*
X0140250Y0053500D03*
X0130250Y0053500D03*
X0120250Y0053500D03*
X0110250Y0053500D03*
X0100250Y0053500D03*
X0090250Y0053500D03*
X0080250Y0053500D03*
X0070250Y0053500D03*
X0060250Y0053500D03*
X0050250Y0053500D03*
X0040250Y0053500D03*
X0024000Y0044750D03*
X0019000Y0037250D03*
X0029000Y0037250D03*
X0040250Y0023500D03*
X0050250Y0023500D03*
X0060250Y0023500D03*
X0070250Y0023500D03*
X0080250Y0023500D03*
X0090250Y0023500D03*
X0100250Y0023500D03*
X0110250Y0023500D03*
X0120250Y0023500D03*
X0130250Y0023500D03*
X0140250Y0023500D03*
X0320250Y0084750D03*
X0320250Y0094750D03*
X0320250Y0104750D03*
X0320250Y0114750D03*
X0320250Y0124750D03*
X0320250Y0134750D03*
X0320250Y0144750D03*
X0320250Y0154750D03*
X0320250Y0164750D03*
X0320250Y0174750D03*
X0320250Y0184750D03*
X0280250Y0184750D03*
X0280250Y0174750D03*
X0280250Y0164750D03*
X0280250Y0154750D03*
X0280250Y0144750D03*
X0280250Y0134750D03*
X0220250Y0142250D03*
X0210250Y0142250D03*
X0180250Y0142250D03*
X0160250Y0142250D03*
X0130250Y0152250D03*
X0115250Y0147250D03*
X0105250Y0147250D03*
X0095250Y0147250D03*
X0085250Y0147250D03*
X0067750Y0142250D03*
X0057750Y0142250D03*
X0044000Y0142250D03*
X0034000Y0142250D03*
X0085250Y0177250D03*
X0095250Y0177250D03*
X0105250Y0177250D03*
X0115250Y0177250D03*
X0130250Y0172250D03*
X0160750Y0161000D03*
X0179750Y0161000D03*
X0210250Y0182250D03*
X0220250Y0182250D03*
X0067750Y0182250D03*
X0057750Y0182250D03*
D13*
X0356500Y0156463D03*
X0356500Y0058037D03*
M02*
